<svg id="Laag_1" data-name="Laag 1" xmlns="http://www.w3.org/2000/svg" viewBox="0 0 600 481.83">
  <defs>
    <style>
      .cls-1 {
        fill: #212240;
      }

      .cls-2 {
        fill: #bcbec0;
      }

      .cls-3 {
        fill: #ed6e28;
      }

      .cls-4 {
        fill: #205611;
        stroke: #fff;
        stroke-miterlimit: 10;
        stroke-width: 0.92px;
      }

      .cls-5 {
        opacity: 0.1;
      }

      .cls-10, .cls-11, .cls-12, .cls-13, .cls-6, .cls-7, .cls-8, .cls-9 {
        fill: #fff;
      }

      .cls-10, .cls-7, .cls-8 {
        font-size: 6.88px;
      }

      .cls-10, .cls-11, .cls-12, .cls-13, .cls-7, .cls-8, .cls-9 {
        font-family: MyriadPro-Bold, Myriad Pro;
        font-weight: 700;
      }

      .cls-7 {
        letter-spacing: -0.05em;
      }

      .cls-8 {
        letter-spacing: -0.05em;
      }

      .cls-13, .cls-9 {
        font-size: 5.5px;
      }

      .cls-9 {
        letter-spacing: -0.05em;
      }

      .cls-10 {
        letter-spacing: -0.05em;
      }

      .cls-11, .cls-12 {
        font-size: 4.13px;
      }

      .cls-11 {
        letter-spacing: -0.05em;
      }

      .cls-12 {
        letter-spacing: -0.05em;
      }

      .cls-13 {
        letter-spacing: -0.05em;
      }
    </style>
  </defs>
  <g>
    <g id="San_Siro" data-name="San Siro">
      <path id="Floor" class="cls-1" d="M593.67,119.69v-13.9H534.91a26.44,26.44,0,0,0-31.46-23.13V19.11h-13.9V37.86H104.16V19.11H90.26v63.4a26.29,26.29,0,0,0-30.49,23.28H6.33v13.9H37v294H6.33v13.9H62.89a26.35,26.35,0,0,0,32.33,12.06h16.54s36.46,23.08,64.25,23.08H408.25c27.8,0,64.25-23.08,64.25-23.08h27a26.35,26.35,0,0,0,32.33-12.06h61.88v-13.9H554.13v-294Z"/>
      <g id="Stand">
        <g>
          <path class="cls-2" d="M431.79,409.76l-3.54-12.47a59.67,59.67,0,0,0,23.46-14l9.38,9.33A73.31,73.31,0,0,1,431.79,409.76Z"/>
          <polygon class="cls-2" points="374.56 412.9 374.56 400.03 402.1 400.03 402.1 412.9 398.26 412.9 374.56 412.9"/>
          <polygon class="cls-2" points="346.3 412.9 342.46 412.9 342.46 400.03 372.64 400.03 372.64 412.9 346.3 412.9"/>
          <polygon class="cls-2" points="307.73 412.9 307.73 400.03 340.54 400.03 340.54 412.9 336.7 412.9 307.73 412.9"/>
          <polygon class="cls-2" points="276.6 412.9 272.76 412.9 272.76 400.03 305.8 400.03 305.8 412.9 276.6 412.9"/>
          <polygon class="cls-2" points="239.97 412.9 239.97 400.03 270.83 400.03 270.83 412.9 266.99 412.9 239.97 412.9"/>
          <polygon class="cls-2" points="211.09 412.9 207.24 412.9 207.24 400.03 238.05 400.03 238.05 412.9 211.09 412.9"/>
          <path class="cls-2" d="M184.25,412.9a73.39,73.39,0,0,1-11.16-.85c.6-4.61,1.19-9.11,1.68-12.82a59.7,59.7,0,0,0,9.7.8h20.85V412.9H184.25Z"/>
          <path class="cls-2" d="M410.37,398.11h-1.76v-4.26h2.73a53.2,53.2,0,0,0,40.3-18.47l2.73,2.21A57.42,57.42,0,0,1,410.37,398.11Z"/>
          <rect class="cls-2" x="393.82" y="393.85" width="12.87" height="4.26"/>
          <rect class="cls-2" x="364.7" y="393.85" width="12.63" height="4.26"/>
          <rect class="cls-2" x="335.58" y="393.85" width="12.63" height="4.26"/>
          <rect class="cls-2" x="262.79" y="393.85" width="12.63" height="4.26"/>
          <rect class="cls-2" x="233.67" y="393.85" width="12.63" height="4.26"/>
          <rect class="cls-2" x="204.55" y="393.85" width="12.63" height="4.26"/>
          <path class="cls-2" d="M140.45,377.57l3.11-2.44a53.2,53.2,0,0,0,40.52,18.72h1v4.26h-.61A57.45,57.45,0,0,1,140.45,377.57Z"/>
          <path class="cls-2" d="M126.94,340.58v-9.74h3.8v9.67a53,53,0,0,0,11.59,33.13l-3.09,2.43A57.28,57.28,0,0,1,126.94,340.58Z"/>
          <path class="cls-2" d="M446.36,378.09,437.71,368a35.6,35.6,0,0,0,5.29-6.38l8.77,4.84,4.58-10L447,353.38a35.87,35.87,0,0,0,1.45-6L462,349.15A51.34,51.34,0,0,1,446.36,378.09Z"/>
          <polygon class="cls-2" points="368.83 391.92 368.83 387.82 378 387.82 378 378.02 406.69 378.02 406.69 391.92 368.83 391.92"/>
          <polygon class="cls-2" points="189.3 391.92 189.3 378.02 218.04 378.02 218.04 387.82 226.99 387.82 226.99 391.92 189.3 391.92"/>
          <path class="cls-2" d="M184.08,391.92a51.12,51.12,0,0,1-32.42-11.55l8.89-9.92A35.88,35.88,0,0,0,182.62,378h4.76v13.9Z"/>
          <path class="cls-2" d="M133.46,349.44l13.5-2.12a36.54,36.54,0,0,0,1.4,5.86l-9.61,3.89,4.7,9.41,8.86-5a36.42,36.42,0,0,0,5.33,6.47l-8.87,9.9A51.34,51.34,0,0,1,133.46,349.44Z"/>
          <path class="cls-2" d="M412.79,376.1h-4.18V354.64h1a16.41,16.41,0,0,0,6-1.13l9.15,9.29,4.24-4.22,8.12,7.36A34,34,0,0,1,412.79,376.1Z"/>
          <polygon class="cls-2" points="263.13 376.1 263.13 371.55 274.14 371.55 274.14 354.64 287.34 354.64 287.34 371.55 308.7 371.55 308.7 354.64 322.08 354.64 322.08 371.55 333.08 371.55 333.08 376.1 263.13 376.1"/>
          <path class="cls-2" d="M158.18,365.75l8.27-7.67,4.12,4.18,8.75-8.78a16.41,16.41,0,0,0,6.05,1.16h2V376.1h-4.76A34,34,0,0,1,158.18,365.75Z"/>
          <path class="cls-2" d="M148.49,342V330.84H168.8v7.23a16.34,16.34,0,0,0,1.39,6.61l-8.67,8.41,3.57,3.62-8.22,7.62A34,34,0,0,1,148.49,342Z"/>
          <polygon class="cls-2" points="189.3 354.64 222.86 354.64 222.86 376.1 218.04 376.1 189.3 376.1 189.3 354.64"/>
          <rect class="cls-2" x="224.78" y="343.06" width="20.26" height="9.65"/>
          <rect class="cls-2" x="189.3" y="343.06" width="33.56" height="9.65"/>
          <polygon class="cls-2" points="224.78 376.1 224.78 354.64 245.04 354.64 245.04 362.18 256.94 362.18 256.94 354.64 261.2 354.64 261.2 370.58 261.2 371.55 261.2 376.1 228.91 376.1 224.78 376.1"/>
          <rect class="cls-2" x="263.13" y="343.06" width="24.21" height="9.65"/>
          <rect class="cls-2" x="256.94" y="343.06" width="4.26" height="9.65"/>
          <rect class="cls-2" x="335.01" y="343.06" width="4.09" height="9.65"/>
          <rect class="cls-2" x="308.7" y="343.06" width="24.38" height="9.65"/>
          <polygon class="cls-2" points="335.01 376.1 335.01 354.64 339.1 354.64 339.1 362.72 351.69 362.72 351.69 354.64 371.6 354.64 371.6 376.1 367.13 376.1 335.01 376.1"/>
          <rect class="cls-2" x="373.53" y="343.06" width="33.15" height="9.65"/>
          <rect class="cls-2" x="351.69" y="343.06" width="19.91" height="9.65"/>
          <polygon class="cls-2" points="373.53 376.1 373.53 354.64 406.69 354.64 406.69 376.1 378 376.1 373.53 376.1"/>
          <path class="cls-2" d="M146.56,330.84V342c0,1.17.06,2.32.17,3.45l-13.57,2.13a52.52,52.52,0,0,1-.49-7v-9.67Z"/>
          <path class="cls-2" d="M408.61,378h4.18a35.86,35.86,0,0,0,22-7.51l8.66,10.1a51.13,51.13,0,0,1-32.11,11.31h-2.73Z"/>
          <path class="cls-2" d="M462.74,340.51a51.4,51.4,0,0,1-.45,6.73l-13.61-1.74c.11-1.17.17-2.34.17-3.54V330.84h13.89Z"/>
          <path class="cls-2" d="M446.92,342a34,34,0,0,1-8.55,22.57l-8.07-7.31,3.58-3.57L424.61,345a16.47,16.47,0,0,0,1.54-6.94v-7.23h20.77Z"/>
          <rect class="cls-2" x="189.3" y="393.85" width="13.32" height="4.26"/>
          <rect class="cls-2" x="219.11" y="393.85" width="12.63" height="4.26"/>
          <rect class="cls-2" x="248.23" y="393.85" width="12.63" height="4.26"/>
          <rect class="cls-2" x="277.35" y="393.85" width="12.63" height="4.26"/>
          <rect class="cls-2" x="291.9" y="393.85" width="12.63" height="4.26"/>
          <rect class="cls-2" x="306.46" y="393.85" width="12.63" height="4.26"/>
          <rect class="cls-2" x="321.02" y="393.85" width="12.63" height="4.26"/>
          <rect class="cls-2" x="350.14" y="393.85" width="12.63" height="4.26"/>
          <rect class="cls-2" x="379.26" y="393.85" width="12.63" height="4.26"/>
          <path class="cls-2" d="M455.58,376.1l-2.7-2.2a53,53,0,0,0,11.79-33.39v-9.67h3.23v9.74A57.22,57.22,0,0,1,455.58,376.1Z"/>
          <path class="cls-2" d="M149.2,403.93l6.41-11.39a59,59,0,0,0,17.26,6.35l-1.67,12.82A72.43,72.43,0,0,1,149.2,403.93Z"/>
          <path class="cls-2" d="M404,412.9V400h6.34a59.25,59.25,0,0,0,16-2.21l3.54,12.46a73,73,0,0,1-19.34,2.62H404Z"/>
          <path class="cls-2" d="M151.38,407.23A74.49,74.49,0,0,0,171,413.62l-.57,4.31c-.65,5-1.3,10-1.78,13.71-.24,1.87-.42,3.24-.53,4.26a98.44,98.44,0,0,1-25.79-8.84Z"/>
          <path class="cls-2" d="M172.84,414a75.3,75.3,0,0,0,11.41.86h9.55v22.91H187a98.94,98.94,0,0,1-17.06-1.5C170.44,432.41,171.64,423.17,172.84,414Z"/>
          <polygon class="cls-2" points="195.72 414.82 201.48 414.82 201.48 420.56 211.09 420.56 211.09 414.82 214.32 414.82 214.32 437.73 195.72 437.73 195.72 414.82"/>
          <rect class="cls-2" x="216.24" y="414.82" width="36.59" height="22.91"/>
          <polygon class="cls-2" points="254.76 414.82 266.99 414.82 266.99 420.56 276.6 420.56 276.6 414.82 288.6 414.82 288.6 437.73 254.76 437.73 254.76 414.82"/>
          <rect class="cls-2" x="290.53" y="414.82" width="35.11" height="22.91"/>
          <polygon class="cls-2" points="327.56 414.82 336.7 414.82 336.7 420.56 346.3 420.56 346.3 414.82 355.56 414.82 355.56 437.73 327.56 437.73 327.56 414.82"/>
          <rect class="cls-2" x="357.48" y="414.82" width="35.33" height="22.91"/>
          <path class="cls-2" d="M394.74,414.82h3.52v5.74h9.61v-5.74h2.72a75.27,75.27,0,0,0,19.87-2.68l6.1,21.5a98.84,98.84,0,0,1-28.16,4.09H394.74Z"/>
          <path class="cls-2" d="M438.41,433.09l-6.1-21.48a75,75,0,0,0,23.23-11.77l13.11,17.49A99.11,99.11,0,0,1,438.41,433.09Z"/>
          <path class="cls-2" d="M470.17,416.14l-13.11-17.49c1.24-1,2.46-2,3.64-3l4.85,4.84,5.76-5.85,11.59,9.48A100.22,100.22,0,0,1,470.17,416.14Z"/>
          <rect class="cls-2" x="289.28" y="354.64" width="17.48" height="15.03"/>
        </g>
        <g>
          <path class="cls-2" d="M178.07,85l1.28,22a74.81,74.81,0,0,0-14.9,2.49L157.38,89.1A98.49,98.49,0,0,1,178.07,85Z"/>
          <rect class="cls-2" x="205.29" y="63.68" width="35.28" height="17.06"/>
          <rect class="cls-2" x="242.5" y="63.68" width="35.56" height="17.06"/>
          <rect class="cls-2" x="279.98" y="63.68" width="34.7" height="17.06"/>
          <rect class="cls-2" x="316.61" y="63.68" width="35.39" height="17.06"/>
          <rect class="cls-2" x="353.93" y="63.68" width="35.05" height="17.06"/>
          <path class="cls-2" d="M432.32,87.51l-4.86,21.23a74.34,74.34,0,0,0-16.1-1.91v-5h-9.72v4.93H395.2V84.59h13.2A99.3,99.3,0,0,1,432.32,87.51Z"/>
          <path class="cls-2" d="M468.65,105l-12.93,17a74.82,74.82,0,0,0-26.39-12.76L434.19,88A99.19,99.19,0,0,1,468.65,105Z"/>
          <path class="cls-2" d="M207.26,108.73v12.52H184.47c-.79,0-1.57,0-2.35.06l-.73-12.51c1,0,1.9-.07,2.86-.07Z"/>
          <rect class="cls-2" x="217.5" y="84.59" width="33.64" height="22.22"/>
          <polygon class="cls-2" points="358.08 84.59 358.08 106.81 351.86 106.81 351.86 101.88 342.14 101.88 342.14 106.81 329.22 106.81 329.22 84.59 358.08 84.59"/>
          <rect class="cls-2" x="378" y="108.73" width="27.42" height="12.52"/>
          <path class="cls-2" d="M463,130.91l-9.59,8.82A59.7,59.7,0,0,0,435,126.59l5-11.68A73.33,73.33,0,0,1,463,130.91Z"/>
          <path class="cls-2" d="M158.06,129.62l2.42,4.72a53.75,53.75,0,0,0-23.17,22.2l-3.93-2.24A57.92,57.92,0,0,1,158.06,129.62Z"/>
          <path class="cls-2" d="M184.47,123.18h.61v5.64h-1a53.05,53.05,0,0,0-21.86,4.7l-2.44-4.76A57,57,0,0,1,184.47,123.18Z"/>
          <rect class="cls-2" x="202.37" y="123.18" width="12.75" height="5.64"/>
          <polygon class="cls-2" points="260.45 108.73 265.97 108.73 265.97 121.25 241.81 121.25 241.81 108.73 260.45 108.73"/>
          <rect class="cls-2" x="309.79" y="89.7" width="17.51" height="17.1"/>
          <rect class="cls-2" x="309.79" y="108.73" width="36.25" height="12.52"/>
          <rect class="cls-2" x="365.28" y="123.18" width="13.12" height="5.64"/>
          <rect class="cls-2" x="395.2" y="123.18" width="13.21" height="5.64"/>
          <path class="cls-2" d="M435.5,129l-2.26,4.58a53.09,53.09,0,0,0-21.9-4.72h-1v-5.64h0A57.24,57.24,0,0,1,435.5,129Z"/>
          <path class="cls-2" d="M461.41,154.2l-3.58,1.86A53.71,53.71,0,0,0,435,134.36l2.23-4.52A57.9,57.9,0,0,1,461.41,154.2Z"/>
          <rect class="cls-2" x="202.37" y="130.74" width="17.33" height="14.24"/>
          <rect class="cls-2" x="246.8" y="123.18" width="12.69" height="5.64"/>
          <rect class="cls-2" x="321" y="123.18" width="12.95" height="5.64"/>
          <rect class="cls-2" x="375.77" y="130.74" width="16.99" height="14.24"/>
          <path class="cls-2" d="M158.44,157l14.15,14.67a16.52,16.52,0,0,0-3.79,10.53V183H148.49v-2A34,34,0,0,1,158.44,157Z"/>
          <path class="cls-2" d="M182.62,146.91h2.46v18.72a16.46,16.46,0,0,0-11.17,4.62l-14.07-14.6A34,34,0,0,1,182.62,146.91Z"/>
          <polygon class="cls-2" points="202.62 146.91 202.62 167.79 197.67 167.79 197.67 165.62 187.01 165.62 187.01 146.91 202.62 146.91"/>
          <rect class="cls-2" x="272.25" y="146.91" width="26.1" height="20.89"/>
          <rect class="cls-2" x="300.28" y="146.91" width="24.9" height="20.89"/>
          <rect class="cls-2" x="327.1" y="146.91" width="26.28" height="20.89"/>
          <rect class="cls-2" x="373.53" y="146.91" width="17.1" height="20.89"/>
          <polygon class="cls-2" points="408.41 146.91 408.41 165.62 397.51 165.62 397.51 167.79 392.56 167.79 392.56 146.91 408.41 146.91"/>
          <path class="cls-2" d="M421,170.22a16.54,16.54,0,0,0-10.69-4.57V146.91h2.46a34,34,0,0,1,22.61,8.59Z"/>
          <rect class="cls-2" x="355.3" y="146.91" width="16.3" height="20.89"/>
          <polygon class="cls-2" points="270.32 146.91 270.32 167.79 257.63 167.79 257.63 157.19 247.96 157.19 247.96 167.79 245.25 167.79 245.25 146.91 270.32 146.91"/>
          <rect class="cls-2" x="226.67" y="146.91" width="16.65" height="20.89"/>
          <rect class="cls-2" x="204.55" y="146.91" width="10.57" height="20.89"/>
          <path class="cls-2" d="M422.34,171.63l14.47-14.81A34,34,0,0,1,446.92,181v2H426.15v-.82A16.44,16.44,0,0,0,422.34,171.63Z"/>
          <path class="cls-2" d="M462.74,183H448.85v-2a35.87,35.87,0,0,0-3.16-14.73l12-6.44a51,51,0,0,1,5.08,22.28Z"/>
          <polygon class="cls-2" points="408.41 138.79 404.39 138.79 404.39 144.98 394.68 144.98 394.68 130.74 408.41 130.74 408.41 138.79"/>
          <polygon class="cls-2" points="200.44 144.98 191.25 144.98 191.25 138.79 187.01 138.79 187.01 130.74 200.44 130.74 200.44 144.98"/>
          <path class="cls-2" d="M185.08,145h-2.46a35.85,35.85,0,0,0-13.21,2.52l-6.3-12.27a51.14,51.14,0,0,1,21-4.49h1Z"/>
          <path class="cls-2" d="M167.64,148.26a36.14,36.14,0,0,0-12.93,10l-8.17-5.66-4.08,6.88-3.48-2a51.83,51.83,0,0,1,22.38-21.44Z"/>
          <path class="cls-2" d="M149.9,165.92A35.75,35.75,0,0,0,146.56,181v2H132.67v-.85a51,51,0,0,1,5.43-23Z"/>
          <rect class="cls-2" x="380.32" y="123.18" width="12.95" height="5.64"/>
          <rect class="cls-2" x="350.4" y="123.18" width="12.95" height="5.64"/>
          <rect class="cls-2" x="335.87" y="123.18" width="12.6" height="5.64"/>
          <rect class="cls-2" x="305.86" y="123.18" width="13.21" height="5.64"/>
          <rect class="cls-2" x="291.42" y="123.18" width="12.52" height="5.64"/>
          <rect class="cls-2" x="276.46" y="123.18" width="13.03" height="5.64"/>
          <rect class="cls-2" x="261.41" y="123.18" width="13.12" height="5.64"/>
          <rect class="cls-2" x="231.75" y="123.18" width="13.12" height="5.64"/>
          <rect class="cls-2" x="217.04" y="123.18" width="12.78" height="5.64"/>
          <rect class="cls-2" x="187.01" y="123.18" width="13.43" height="5.64"/>
          <rect class="cls-2" x="347.97" y="108.73" width="28.11" height="12.52"/>
          <polygon class="cls-2" points="271.29 89.7 271.29 101.88 262.58 101.88 262.58 106.81 260.45 106.81 253.07 106.81 253.07 84.59 264.13 84.59 264.13 89.7 271.29 89.7"/>
          <rect class="cls-2" x="209.19" y="108.73" width="30.69" height="12.52"/>
          <path class="cls-2" d="M180.2,121.42a59.25,59.25,0,0,0-15.87,3.35l-5-11.67a72.64,72.64,0,0,1,20.12-4.19Z"/>
          <path class="cls-2" d="M460.14,125.55c-.95-.83-1.92-1.64-2.9-2.43l12.92-17c1.54,1.22,3,2.48,4.51,3.79Z"/>
          <rect class="cls-2" x="360" y="84.59" width="33.27" height="22.22"/>
          <polygon class="cls-2" points="215.58 84.59 215.58 106.81 213.09 106.81 213.09 101.88 203.37 101.88 203.37 106.81 199.16 106.81 199.16 84.59 215.58 84.59"/>
          <path class="cls-2" d="M197.24,106.81h-13c-1,0-2,0-3,.07l-1.29-22c2.32-.16,4.66-.27,7-.27h10.23Z"/>
          <path class="cls-2" d="M478.89,108.61a104.37,104.37,0,0,0-16.18-12.4l8.81-14.81a119.72,119.72,0,0,1,18.89,14.37Z"/>
          <path class="cls-2" d="M467.8,77l7.86-15.13a135.68,135.68,0,0,1,17.63,11.59l-5.12,17.73A122.23,122.23,0,0,0,467.8,77Z"/>
          <path class="cls-2" d="M466.11,76.07a120.83,120.83,0,0,0-24.21-9.76L446.38,50a134.74,134.74,0,0,1,27.58,11Z"/>
          <path class="cls-2" d="M469.87,80.4l-8.81,14.81a102.94,102.94,0,0,0-29.9-11.92l3.29-16.85A119,119,0,0,1,469.87,80.4Z"/>
          <path class="cls-2" d="M429.28,82.86a103.34,103.34,0,0,0-20.88-2.12H390.9V63.68h18A119.54,119.54,0,0,1,432.56,66Z"/>
          <rect class="cls-2" x="372.33" y="45.11" width="35.22" height="16.65"/>
          <rect class="cls-2" x="335.87" y="45.11" width="34.53" height="16.65"/>
          <rect class="cls-2" x="298.04" y="45.11" width="35.91" height="16.65"/>
          <rect class="cls-2" x="261.41" y="45.11" width="34.7" height="16.65"/>
          <rect class="cls-2" x="224.1" y="45.11" width="35.39" height="16.65"/>
          <rect class="cls-2" x="187.12" y="45.11" width="35.05" height="16.65"/>
          <path class="cls-2" d="M186,63.68h17.38V80.74H187a103.2,103.2,0,0,0-20.72,2.09L162.45,66A120.16,120.16,0,0,1,186,63.68Z"/>
          <path class="cls-2" d="M160.57,66.4l3.84,16.86a102.44,102.44,0,0,0-30.33,12.11l-9.13-15A119.29,119.29,0,0,1,160.57,66.4Z"/>
          <path class="cls-2" d="M129.33,75.75l-8.28-15.08a135,135,0,0,1,27.54-10.85L153,66.31A121.07,121.07,0,0,0,129.33,75.75Z"/>
          <path class="cls-2" d="M127.63,76.66A122.57,122.57,0,0,0,106.88,91l-5-18.07a136.51,136.51,0,0,1,17.47-11.36Z"/>
          <path class="cls-2" d="M123.3,81.41l9.15,15a104.05,104.05,0,0,0-16.07,12.37L104.87,95.36A120,120,0,0,1,123.3,81.41Z"/>
          <path class="cls-2" d="M444.52,49.45,440.05,65.8a121.91,121.91,0,0,0-30.58-4V45.11h1A135.32,135.32,0,0,1,444.52,49.45Z"/>
          <path class="cls-2" d="M185.2,45.11V61.76a121.79,121.79,0,0,0-30.39,4l-4.36-16.48a135.43,135.43,0,0,1,33.6-4.21Z"/>
          <path class="cls-2" d="M467.9,180.71V183h-3.23v-.85a53,53,0,0,0-5.93-24.4l3.54-1.83A57.21,57.21,0,0,1,467.9,180.71Z"/>
          <path class="cls-2" d="M132.51,156l3.91,2.23a53,53,0,0,0-5.68,23.9V183h-3.8v-2.29A57.23,57.23,0,0,1,132.51,156Z"/>
          <path class="cls-2" d="M438.19,114.15l-5,11.66a59.19,59.19,0,0,0-22.82-4.56h-3V108.73h3.24A72.85,72.85,0,0,1,438.19,114.15Z"/>
        </g>
        <g>
          <path class="cls-2" d="M50.16,368.45l16.18-3a120.92,120.92,0,0,0,7.32,24.1H55.23A134.13,134.13,0,0,1,50.16,368.45Z"/>
          <rect class="cls-2" x="48.52" y="313.71" width="15.61" height="23.75"/>
          <path class="cls-2" d="M48.55,178.66h15.7c-.07,1.64-.11,3.29-.11,4.94v22.26H48.52V180.63C48.52,180,48.54,179.32,48.55,178.66Z"/>
          <path class="cls-2" d="M87.55,338.27v-2.09h21.64v2.95h-4.81V349h5.39a74.51,74.51,0,0,0,7,23.63L98,382.53A98.83,98.83,0,0,1,87.55,338.27Z"/>
          <path class="cls-2" d="M72.26,145.53,88.83,152a102.87,102.87,0,0,0-5.1,30.75H66.08A119.4,119.4,0,0,1,72.26,145.53Z"/>
          <path class="cls-2" d="M100.37,135.29l18.19,10.31q-1.61,2.9-3,5.93l-4.09-1.91-3.46,9,4.35,1.54c-.28.91-.55,1.83-.79,2.75L91.32,157A99,99,0,0,1,100.37,135.29Z"/>
          <path class="cls-2" d="M136.29,98.54l10.6,18.26a75.65,75.65,0,0,0-27.37,27.13l-18.19-10.3A100.16,100.16,0,0,1,136.29,98.54Z"/>
          <path class="cls-2" d="M123.11,379.83l11.49-6.94a59.88,59.88,0,0,0,16.33,16.75l-7.34,10.88A73.63,73.63,0,0,1,123.11,379.83Z"/>
          <path class="cls-2" d="M111.32,345l13.84-.35a59.21,59.21,0,0,0,8.4,26.64l-11.49,6.94A72.67,72.67,0,0,1,111.32,345Z"/>
          <rect class="cls-2" x="66.06" y="184.62" width="17.63" height="36.02"/>
          <path class="cls-2" d="M90.79,158.84l20.39,5.94a74.55,74.55,0,0,0-2,17.08v.84H87.58A99.27,99.27,0,0,1,90.79,158.84Z"/>
          <path class="cls-2" d="M130.9,131.92l9.37,9.07a59.67,59.67,0,0,0-11.77,19.65l-12.45-5.13A73.34,73.34,0,0,1,130.9,131.92Z"/>
          <path class="cls-2" d="M155.76,114.51l5,11.69a59.64,59.64,0,0,0-19.17,13.38l-9.36-9.05A73.45,73.45,0,0,1,155.76,114.51Z"/>
          <polygon class="cls-2" points="109.19 302.21 87.55 302.21 87.55 275.53 109.19 275.53 109.19 278.31 104.38 278.31 104.38 288.15 109.19 288.15 109.19 302.21"/>
          <polygon class="cls-2" points="87.55 208.93 109.19 208.93 109.19 214.74 104.38 214.74 104.38 224.58 109.19 224.58 109.19 227.18 87.55 227.18 87.55 208.93"/>
          <path class="cls-2" d="M115.37,157.32l12.51,5.15A59.47,59.47,0,0,0,125,180.71v5.43H111.12v-4.28A72.56,72.56,0,0,1,115.37,157.32Z"/>
          <rect class="cls-2" x="87.55" y="229.11" width="21.64" height="44.5"/>
          <polygon class="cls-2" points="111.12 188.06 125.01 188.06 125.01 218.69 111.12 218.69 111.12 214.74 111.12 188.06"/>
          <polygon class="cls-3" points="126.94 208.47 136.93 208.47 136.93 215.58 146.56 215.58 146.56 234.86 126.94 234.86 126.94 208.47"/>
          <rect class="cls-3" x="148.49" y="279.32" width="20.31" height="19.4"/>
          <rect class="cls-3" x="148.49" y="257.19" width="20.31" height="20.2"/>
          <rect class="cls-3" x="126.94" y="236.79" width="19.63" height="18.48"/>
          <rect class="cls-3" x="126.94" y="257.19" width="19.63" height="20.2"/>
          <rect class="cls-3" x="148.49" y="236.79" width="20.31" height="18.48"/>
          <rect class="cls-3" x="148.49" y="215.58" width="20.31" height="19.28"/>
          <rect class="cls-3" x="148.49" y="186.85" width="20.31" height="26.8"/>
          <polygon class="cls-3" points="126.94 279.32 146.56 279.32 146.56 298.71 136.93 298.71 136.93 305.71 126.94 305.71 126.94 279.32"/>
          <rect class="cls-3" x="148.49" y="300.64" width="20.31" height="26.35"/>
          <rect class="cls-3" x="126.94" y="186.85" width="19.63" height="19.69"/>
          <polygon class="cls-2" points="111.12 220.62 125.01 220.62 125.01 250.57 111.12 250.57 111.12 224.58 111.12 220.62"/>
          <polygon class="cls-2" points="111.12 278.31 111.12 252.49 125.01 252.49 125.01 282.44 111.12 282.44 111.12 278.31"/>
          <rect class="cls-3" x="126.94" y="307.63" width="19.63" height="19.35"/>
          <polygon class="cls-2" points="111.12 288.15 111.12 284.36 125.01 284.36 125.01 312.59 111.12 312.59 111.12 288.15"/>
          <rect class="cls-2" x="87.55" y="184.62" width="21.64" height="22.38"/>
          <rect class="cls-2" x="66.06" y="222.57" width="17.63" height="33.73"/>
          <rect class="cls-2" x="66.06" y="258.23" width="17.63" height="32.92"/>
          <rect class="cls-2" x="87.55" y="304.14" width="21.64" height="30.11"/>
          <path class="cls-2" d="M111.12,314.51H125v26.07c0,.71,0,1.42.06,2.12l-13.87.36c0-1.1-.08-2.19-.08-3.29V314.51Z"/>
          <path class="cls-2" d="M153.73,90.33,159.19,106l-9,3.52,2.27,4.33c-1.32.62-2.62,1.26-3.9,2L138,97.58A99.7,99.7,0,0,1,153.73,90.33Z"/>
          <rect class="cls-2" x="66.06" y="293.07" width="17.63" height="36.02"/>
          <path class="cls-2" d="M117.64,374.3a75.47,75.47,0,0,0,20.44,24.58l-13.17,17a99.91,99.91,0,0,1-26-31.62Z"/>
          <path class="cls-2" d="M139.6,400.06c1,.71,1.93,1.4,2.92,2.06l-3.25,4.81,7.9,4.86-6.6,14.39a99.81,99.81,0,0,1-14.15-9.12Z"/>
          <path class="cls-2" d="M78.22,131l16.06,7.54a101.91,101.91,0,0,0-4.83,11.55l-16.56-6.41A119.05,119.05,0,0,1,78.22,131Z"/>
          <path class="cls-2" d="M68.69,150.56l-15.84-4q1.6-6.17,3.77-12.1H74.49A120.94,120.94,0,0,0,68.69,150.56Z"/>
          <path class="cls-2" d="M68.19,152.42a121.11,121.11,0,0,0-3.86,24.32H48.58a135.71,135.71,0,0,1,3.81-28.28Z"/>
          <rect class="cls-2" x="48.52" y="207.78" width="15.61" height="30.86"/>
          <rect class="cls-2" x="48.52" y="240.57" width="15.61" height="33.04"/>
          <rect class="cls-2" x="48.52" y="275.53" width="15.61" height="36.25"/>
          <path class="cls-2" d="M66.06,331H83.7v7.25a103.2,103.2,0,0,0,3.06,25l-18,4.45a119.61,119.61,0,0,1-2.71-25.35Z"/>
          <path class="cls-2" d="M69.18,369.55l18.07-4.46a101.67,101.67,0,0,0,7.33,19.25l-17.09,9A119.61,119.61,0,0,1,69.18,369.55Z"/>
          <path class="cls-2" d="M48.52,339.39H64.14v2.93A121.51,121.51,0,0,0,66,363.53l-16.11,3a135.53,135.53,0,0,1-1.36-19.12Z"/>
        </g>
        <g>
          <path class="cls-2" d="M499.6,144.4l-19.87,8.25a75.28,75.28,0,0,0-10.66-17.76l3.44-3.13-6.24-7.14,11.21-12A99.78,99.78,0,0,1,499.6,144.4Z"/>
          <path class="cls-2" d="M469.77,178.29a59.08,59.08,0,0,0-3.53-17.95l12.42-5.16a72.44,72.44,0,0,1,4.93,22.46Z"/>
          <path class="cls-2" d="M541.52,146.15,526.26,151a120.32,120.32,0,0,0-6.74-18.31h17.67A133.52,133.52,0,0,1,541.52,146.15Z"/>
          <rect class="cls-2" x="511.72" y="293.25" width="17.06" height="35.73"/>
          <path class="cls-2" d="M501.51,373.22l-20.35-7.89a74.7,74.7,0,0,0,4.49-25.56v-14h22.22v12.52A99,99,0,0,1,501.51,373.22Z"/>
          <path class="cls-2" d="M485.41,401.14l-16.83-13.77a75.29,75.29,0,0,0,11.89-20.25L500.8,375A99.64,99.64,0,0,1,485.41,401.14Z"/>
          <path class="cls-2" d="M528.77,182.64H511.68a102.88,102.88,0,0,0-5.26-31.2l16.24-5.67A119.62,119.62,0,0,1,528.77,182.64Z"/>
          <rect class="cls-2" x="511.72" y="258.17" width="17.06" height="33.15"/>
          <polygon class="cls-2" points="507.87 323.82 485.65 323.82 485.65 311.99 490.92 311.99 490.92 301.35 485.65 301.35 485.65 294.62 507.87 294.62 507.87 323.82"/>
          <path class="cls-2" d="M463.8,389.86l-9.4-9.36A59.35,59.35,0,0,0,469,350.26l13.62,1.94A73,73,0,0,1,463.8,389.86Z"/>
          <rect class="cls-2" x="485.65" y="258.17" width="22.22" height="34.53"/>
          <polygon class="cls-2" points="483.72 305.71 469.83 305.71 469.83 279.43 483.72 279.43 483.72 301.35 483.72 305.71"/>
          <polygon class="cls-2" points="483.72 277.51 469.83 277.51 469.83 245.3 483.72 245.3 483.72 249.17 483.72 277.51"/>
          <polygon class="cls-3" points="446.92 326.99 426.15 326.99 426.15 300.3 446.92 300.3 446.92 307.63 446.92 326.99"/>
          <rect class="cls-3" x="448.85" y="236.56" width="19.05" height="20.89"/>
          <rect class="cls-3" x="426.15" y="186.85" width="20.77" height="26.92"/>
          <rect class="cls-3" x="426.15" y="215.69" width="20.77" height="18.94"/>
          <rect class="cls-3" x="426.15" y="236.56" width="20.77" height="20.89"/>
          <polygon class="cls-3" points="467.9 234.63 448.85 234.63 448.85 215.69 458.6 215.69 458.6 208.36 467.9 208.36 467.9 234.63"/>
          <polygon class="cls-3" points="467.9 206.43 457.63 206.43 456.67 206.43 448.85 206.43 448.85 186.85 467.9 186.85 467.9 206.43"/>
          <rect class="cls-3" x="426.15" y="279.43" width="20.77" height="18.94"/>
          <rect class="cls-3" x="426.15" y="259.37" width="20.77" height="18.13"/>
          <rect class="cls-3" x="448.85" y="259.37" width="19.05" height="18.13"/>
          <polygon class="cls-2" points="485.65 249.17 490.92 249.17 490.92 238.53 485.65 238.53 485.65 226.93 507.87 226.93 507.87 256.24 485.65 256.24 485.65 249.17"/>
          <polygon class="cls-2" points="483.72 238.53 483.72 243.38 469.83 243.38 469.83 215.69 483.72 215.69 483.72 238.53"/>
          <polygon class="cls-3" points="467.9 326.99 448.85 326.99 448.85 307.63 458.6 307.63 467.9 307.63 467.9 326.99"/>
          <polygon class="cls-3" points="458.6 305.71 458.6 298.37 448.85 298.37 448.85 279.43 467.9 279.43 467.9 305.71 458.6 305.71"/>
          <rect class="cls-2" x="485.65" y="189.32" width="22.22" height="35.68"/>
          <path class="cls-2" d="M483.72,213.77H469.83V180.71c0-.17,0-.33,0-.49l13.85-.65c0,.76.05,1.52.05,2.29v31.91Z"/>
          <path class="cls-2" d="M483.72,339.77a73,73,0,0,1-.77,10.52l-13.65-1.93a58.76,58.76,0,0,0,.53-7.78V307.63h13.89v32.14Z"/>
          <rect class="cls-2" x="511.72" y="222.23" width="17.06" height="34.01"/>
          <rect class="cls-2" x="511.72" y="184.57" width="17.06" height="35.73"/>
          <path class="cls-2" d="M507.87,184.05v3.35H485.65v-4h5.16v-9.6h-5.6a74.61,74.61,0,0,0-4.77-19.32l19.91-8.27A98.9,98.9,0,0,1,507.87,184.05Z"/>
          <path class="cls-2" d="M526.76,152.82,542,148a135.56,135.56,0,0,1,3.9,28.25H530.48A120.88,120.88,0,0,0,526.76,152.82Z"/>
          <path class="cls-2" d="M522,144l-16.23,5.67a103.05,103.05,0,0,0-5-11.77l15.63-7.26A117.44,117.44,0,0,1,522,144Z"/>
          <path class="cls-2" d="M517.61,392.82,501,384a102.58,102.58,0,0,0,7.08-18.65l17.47,4.59A119.29,119.29,0,0,1,517.61,392.82Z"/>
          <path class="cls-2" d="M528.56,365.07l15.76,3.52a134.93,134.93,0,0,1-5.3,21.69l-17.89-.61A120.7,120.7,0,0,0,528.56,365.07Z"/>
          <path class="cls-2" d="M526,368l-17.39-4.57a103.18,103.18,0,0,0,3.12-25.2v-7.36h17.06v11.41A119.73,119.73,0,0,1,526,368Z"/>
          <rect class="cls-2" x="530.7" y="313.88" width="15.27" height="23.52"/>
          <rect class="cls-2" x="530.7" y="275.71" width="15.27" height="36.25"/>
          <rect class="cls-2" x="530.7" y="240.45" width="15.27" height="33.33"/>
          <rect class="cls-2" x="530.7" y="207.44" width="15.27" height="31.09"/>
          <path class="cls-2" d="M530.7,205.51V183.6q0-2.72-.12-5.4h15.36q0,1.22,0,2.43v24.88Z"/>
          <path class="cls-2" d="M544.6,366.68l-15.69-3.5a121.59,121.59,0,0,0,1.79-20.86v-3H546v8.09A135.91,135.91,0,0,1,544.6,366.68Z"/>
          <path class="cls-2" d="M465.53,158.55a59.25,59.25,0,0,0-9.57-16l9.63-8.86A73.12,73.12,0,0,1,478,153.39Z"/>
        </g>
        <g>
          <polygon class="cls-2" points="327.3 84.59 327.3 87.78 307.86 87.78 307.86 121.25 269.83 121.25 269.83 108.73 272.26 108.73 273.22 108.73 273.22 87.78 266.06 87.78 266.06 84.59 327.3 84.59"/>
          <rect class="cls-2" x="221.63" y="130.74" width="21.69" height="14.24"/>
          <polygon class="cls-2" points="289.98 130.74 289.98 144.98 273.22 144.98 273.22 138.79 268.63 138.79 268.63 130.74 289.98 130.74"/>
          <polygon class="cls-2" points="314.05 130.74 314.05 144.98 299.86 144.98 299.86 139.75 296.01 139.75 296.01 144.98 291.91 144.98 291.91 130.74 314.05 130.74"/>
          <rect class="cls-2" x="331.34" y="130.74" width="22.03" height="14.24"/>
          <path class="cls-2" d="M456.78,158.16l-11.93,6.41A36.08,36.08,0,0,0,412.79,145h-2.46V130.74h1A51.44,51.44,0,0,1,456.78,158.16Z"/>
          <polygon class="cls-2" points="329.42 130.74 329.42 138.79 325.18 138.79 325.18 144.98 315.98 144.98 315.98 130.74 329.42 130.74"/>
          <rect class="cls-2" x="245.25" y="130.74" width="21.46" height="14.24"/>
          <rect class="cls-2" x="355.3" y="130.74" width="18.54" height="14.24"/>
        </g>
        <g>
          <rect class="cls-2" x="336.56" y="378.02" width="30.35" height="13.9"/>
          <rect class="cls-2" x="298.96" y="378.02" width="35.68" height="13.9"/>
          <rect class="cls-2" x="263.13" y="378.02" width="33.9" height="13.9"/>
          <polygon class="cls-2" points="228.91 391.92 228.91 387.82 228.91 378.02 261.2 378.02 261.2 391.92 228.91 391.92"/>
        </g>
        <g>
          <rect class="cls-2" x="199.52" y="172.31" width="12.04" height="5.27"/>
          <rect class="cls-2" x="213.5" y="172.31" width="12.04" height="5.27"/>
          <rect class="cls-2" x="227.49" y="172.31" width="12.04" height="5.27"/>
          <rect class="cls-2" x="241.48" y="172.31" width="12.04" height="5.27"/>
          <rect class="cls-2" x="255.46" y="172.31" width="12.04" height="5.27"/>
          <rect class="cls-2" x="332.5" y="172.31" width="12.04" height="5.27"/>
          <rect class="cls-2" x="346.49" y="172.31" width="12.04" height="5.27"/>
          <rect class="cls-2" x="360.47" y="172.31" width="12.04" height="5.27"/>
          <rect class="cls-2" x="374.46" y="172.31" width="12.04" height="5.27"/>
          <rect class="cls-2" x="388.44" y="172.31" width="12.04" height="5.27"/>
        </g>
        <g>
          <circle class="cls-2" cx="86.08" cy="108.8" r="19.6"/>
          <circle class="cls-2" cx="508.42" cy="108.8" r="19.6"/>
          <circle class="cls-2" cx="86.08" cy="414.82" r="19.6"/>
          <circle class="cls-2" cx="508.42" cy="414.82" r="19.6"/>
        </g>
      </g>
      <g id="Ground">
        <path class="cls-4" d="M300.69,232.3a2.9,2.9,0,0,0-.68,0,26.59,26.59,0,0,0,0,53.17h.68a26.59,26.59,0,0,0,0-53.17Zm0,52.48H300a25.9,25.9,0,0,1,0-51.8h.68a25.9,25.9,0,0,1,0,51.8Z"/>
        <g>
          <path class="cls-4" d="M242,258.87a26.44,26.44,0,0,1-9.8,20.63l-.13.11-.43-.54a6.33,6.33,0,0,0,.56-.47,25.88,25.88,0,0,0,0-39.44c-.18-.16-.36-.32-.56-.47l.45-.53a.73.73,0,0,1,.11.09A26.5,26.5,0,0,1,242,258.87Z"/>
          <polygon class="cls-4" points="232.19 204.74 232.19 313.76 186.1 313.76 186.1 313.08 231.5 313.08 231.5 205.43 186.1 205.43 186.1 204.74 232.19 204.74"/>
          <polygon class="cls-4" points="203.47 234.09 203.47 283.79 186.1 283.79 186.1 283.1 202.79 283.1 202.79 234.77 186.1 234.77 186.1 234.09 203.47 234.09"/>
        </g>
        <g>
          <path class="cls-4" d="M368.5,279c.18.17.36.32.55.47l-.44.54-.11-.1a26.6,26.6,0,0,1,0-41.26l.13-.11.42.54c-.19.15-.37.3-.55.47a25.89,25.89,0,0,0,0,39.45Z"/>
          <path class="cls-4" d="M368.5,239.52V279a25.89,25.89,0,0,1,0-39.45Z"/>
          <polygon class="cls-4" points="369.19 205.06 369.19 312.71 414.59 312.71 414.59 313.39 368.5 313.39 368.5 204.37 414.59 204.37 414.59 205.06 369.19 205.06"/>
          <polygon class="cls-4" points="397.9 235.03 397.9 283.36 414.59 283.36 414.59 284.05 397.21 284.05 397.21 234.35 414.59 234.35 414.59 235.03 397.9 235.03"/>
        </g>
        <path class="cls-4" d="M185.76,184.05V334.44H414.93V184.05Zm228.48,149.7H186.44v-149h227.8Z"/>
        <rect class="cls-4" x="397.9" y="235.03" width="16.34" height="48.33"/>
        <polygon class="cls-4" points="397.21 234.35 397.21 284.05 414.24 284.05 414.24 312.71 369.19 312.71 369.19 205.06 414.24 205.06 414.24 234.35 397.21 234.35"/>
        <path class="cls-4" d="M358.69,259.25a26.5,26.5,0,0,0,9.81,20.63v33.51h45.74v20.36H300.69V285.47a26.59,26.59,0,0,0,0-53.17V184.74H414.24v19.63H368.5v34.25A26.48,26.48,0,0,0,358.69,259.25Z"/>
        <path class="cls-4" d="M326.26,258.87a25.93,25.93,0,0,1-25.57,25.91V233A25.93,25.93,0,0,1,326.26,258.87Z"/>
        <path class="cls-4" d="M300,233v51.8a25.9,25.9,0,0,1,0-51.8Z"/>
        <path class="cls-4" d="M273.74,258.87A26.63,26.63,0,0,0,300,285.47v48.28H186.44v-20h45.75V279.5a26.6,26.6,0,0,0,0-41.25V204.74H186.44v-20H300V232.3A26.61,26.61,0,0,0,273.74,258.87Z"/>
        <path class="cls-4" d="M241.31,258.87a25.75,25.75,0,0,1-9.12,19.73V239.16A25.73,25.73,0,0,1,241.31,258.87Z"/>
        <polygon class="cls-4" points="231.5 205.43 231.5 313.08 186.44 313.08 186.44 283.79 203.47 283.79 203.47 234.09 186.44 234.09 186.44 205.43 231.5 205.43"/>
        <rect class="cls-4" x="186.44" y="234.77" width="16.34" height="48.33"/>
        <rect class="cls-4" x="300.01" y="184.39" width="0.69" height="149.79"/>
      </g>
      <g class="cls-5">
        <g>
          <path class="cls-6" d="M339,209.14a3.44,3.44,0,0,0-.8-.09l-4.8.65-4.8.65-4.11.55-4.74.64a3.79,3.79,0,0,0-1.94.69,3.17,3.17,0,0,0-1.2,1.93,4.48,4.48,0,0,0-.11,1v9.54a3.81,3.81,0,0,0,.33,1.58,3.05,3.05,0,0,0,2.87,1.77,3.86,3.86,0,0,0,.61,0l4.44-.57v61.06a3.19,3.19,0,0,0,.79,2.21,3.12,3.12,0,0,0,2.33.91h10.33a3,3,0,0,0,3.12-3.12V212.17A3,3,0,0,0,339,209.14Zm-.74,21.45v58H327.83v-64.6l-7.92,1h-.29a.74.74,0,0,1,0-.28v-9.54a1,1,0,0,1,.07-.47.89.89,0,0,1,.41-.09l.89-.12,4.11-.56,4.8-.65,8.42-1.15v18.48Z"/>
          <path class="cls-6" d="M306,219.83a13.48,13.48,0,0,0-3.9-7,12.92,12.92,0,0,0-2.73-1.9,16.57,16.57,0,0,0-4.69-1.53,23.74,23.74,0,0,0-4-.32H262.47a3,3,0,0,0-3.12,3.12v28.68a3,3,0,0,0,2.88,3.11H272.8a2.92,2.92,0,0,0,3.12-3.12V225.22h11.59a2.83,2.83,0,0,1,1.73.42,1.85,1.85,0,0,1,.67,1.33,5.08,5.08,0,0,1,0,.7v18.68a2.35,2.35,0,0,1-.77,2l-.08.06-.17.08a1.22,1.22,0,0,0-.2.1h-.06l-.17,0-.21.05-.07,0a4,4,0,0,1-.71.06h-25l-.42,0a3,3,0,0,0-2.7,3.09v36.57a3,3,0,0,0,3.12,3.12H272.8a2.93,2.93,0,0,0,3.12-3.12V265h14.77c.63,0,1.24,0,1.81-.07a18.89,18.89,0,0,0,4.53-.84,14.85,14.85,0,0,0,1.87-.74,12.67,12.67,0,0,0,6.79-8.09,20.75,20.75,0,0,0,.83-5.63V224.89c0-.33,0-.64,0-1A21.53,21.53,0,0,0,306,219.83Zm-2.51,18.42v10.88a20.24,20.24,0,0,1-.36,3.88c-.88,4.33-3.36,7.1-7.42,8.26a16.57,16.57,0,0,1-3.42.59c-.49,0-1,.05-1.58.05H272.86v26.63H262.41a.13.13,0,0,1,0-.06V251.91a.07.07,0,0,1,0,0h25.1a8,8,0,0,0,1.19-.09,2.58,2.58,0,0,0,.42-.1l.2,0a3.45,3.45,0,0,0,.46-.12,3,3,0,0,0,.4-.18l.13-.07a2.82,2.82,0,0,0,.46-.23l.2-.15a5.2,5.2,0,0,0,2-4.51V227.67a8.16,8.16,0,0,0-.07-1.13,5,5,0,0,0-1.53-3.07,5.3,5.3,0,0,0-3.05-1.26,7.81,7.81,0,0,0-.85,0H272.86v18.74H262.41s0,0,0-.06V212.17a.13.13,0,0,1,0-.06h28.28q.62,0,1.2,0a15.52,15.52,0,0,1,5.38,1.16A10,10,0,0,1,299.9,215a11.4,11.4,0,0,1,3.44,7.49,23.26,23.26,0,0,1,.13,2.42v13.36Z"/>
        </g>
        <g>
          <path class="cls-6" d="M264.56,309.44h-2.27v-8.8h-2.9v-1.89h8.07v1.89h-2.9Z"/>
          <path class="cls-6" d="M276.34,305.34v4.1h-2.27V298.75h3.12a5.43,5.43,0,0,1,3.23.79,2.86,2.86,0,0,1,1,2.41,2.81,2.81,0,0,1-.52,1.68,3.3,3.3,0,0,1-1.47,1.15q2.41,3.62,3.15,4.66H280.1l-2.55-4.1Zm0-1.84h.73a2.79,2.79,0,0,0,1.59-.36,1.29,1.29,0,0,0,.51-1.13,1.16,1.16,0,0,0-.52-1.08,3.23,3.23,0,0,0-1.62-.32h-.69Z"/>
          <path class="cls-6" d="M296,309.44l-.77-2.54h-3.9l-.78,2.54H288.1l3.78-10.73h2.77l3.79,10.73ZM294.68,305c-.72-2.31-1.12-3.61-1.21-3.92s-.16-.54-.2-.71q-.24.93-1.38,4.63Z"/>
          <path class="cls-6" d="M310.77,298.75h2.29l-3.64,10.69H307l-3.62-10.69h2.28l2,6.36c.11.38.22.82.34,1.32s.2.84.23,1a17.89,17.89,0,0,1,.54-2.36Z"/>
          <path class="cls-6" d="M326.19,309.44H320V298.75h6.15v1.86H322.3V303h3.62v1.85H322.3v2.76h3.89Z"/>
          <path class="cls-6" d="M334.74,309.44V298.75H337v8.82h4.34v1.87Z"/>
        </g>
      </g>
    </g>
    <g id="Seat_Number" data-name="Seat Number">
      <g>
        <text class="cls-7" transform="translate(272.68 55.46)">330</text>
        <text class="cls-7" transform="translate(236.41 55.46)">328</text>
        <text class="cls-7" transform="translate(199.27 55.46)">326</text>
        <text class="cls-7" transform="translate(162.44 57.52)">324</text>
        <text class="cls-7" transform="translate(132.58 64.91)">322</text>
        <text class="cls-7" transform="translate(109.38 77.29)">320</text>
        <text class="cls-7" transform="translate(311.23 55.46)">332</text>
        <text class="cls-7" transform="translate(348.55 55.46)">334</text>
        <text class="cls-7" transform="translate(384.55 55.46)">336</text>
        <text class="cls-7" transform="translate(421.61 57.52)">338</text>
        <text class="cls-7" transform="translate(452.55 64.91)">340</text>
        <text class="cls-7" transform="translate(475.16 77.29)">342</text>
        <text class="cls-8" transform="translate(113.31 97.24) scale(0.99 1)">319</text>
        <text class="cls-8" transform="translate(139.33 82.83) scale(0.99 1)">321</text>
        <text class="cls-8" transform="translate(177.56 74.8) scale(0.99 1)">323</text>
        <text class="cls-8" transform="translate(217.58 74.8) scale(0.99 1)">325</text>
        <text class="cls-8" transform="translate(254.92 74.8) scale(0.99 1)">327</text>
        <text class="cls-8" transform="translate(291.32 74.8) scale(0.99 1)">329</text>
        <text class="cls-8" transform="translate(328.95 74.8) scale(0.99 1)">331</text>
        <text class="cls-8" transform="translate(366.1 74.8) scale(0.99 1)">333</text>
        <text class="cls-8" transform="translate(406.37 74.8) scale(0.99 1)">335</text>
        <text class="cls-8" transform="translate(443.64 82.83) scale(0.99 1)">337</text>
        <text class="cls-8" transform="translate(471.21 96.66) scale(0.99 1)">339</text>
        <text class="cls-8" transform="translate(164.42 98.54) scale(0.99 1)">222</text>
        <text class="cls-8" transform="translate(183.26 98.54) scale(0.99 1)">224</text>
        <text class="cls-8" transform="translate(202.02 98.54) scale(0.99 1)">226</text>
        <text class="cls-8" transform="translate(228.97 98.54) scale(0.99 1)">228</text>
        <text class="cls-8" transform="translate(256.83 98.54) scale(0.99 1)">228</text>
        <text class="cls-8" transform="translate(313.19 98.54) scale(0.99 1)">230</text>
        <text class="cls-8" transform="translate(338.29 98.54) scale(0.99 1)">232</text>
        <text class="cls-8" transform="translate(371.28 98.54) scale(0.99 1)">234</text>
        <text class="cls-8" transform="translate(406.37 98.54) scale(0.99 1)">236</text>
        <text class="cls-8" transform="translate(441.57 106.17) scale(0.99 1)">238</text>
        <text class="cls-8" transform="translate(165.79 118.48) scale(0.99 1)">221</text>
        <text class="cls-8" transform="translate(189.46 116.84) scale(0.99 1)">223</text>
        <text class="cls-8" transform="translate(219.18 116.84) scale(0.99 1)">225</text>
        <text class="cls-8" transform="translate(248.54 116.84) scale(0.99 1)">227</text>
        <text class="cls-8" transform="translate(322.56 116.84) scale(0.99 1)">229</text>
        <text class="cls-8" transform="translate(356.67 116.84) scale(0.99 1)">231</text>
        <text class="cls-8" transform="translate(386.36 116.84) scale(0.99 1)">233</text>
        <text class="cls-8" transform="translate(416.99 118.48) scale(0.99 1)">235</text>
        <text class="cls-8" transform="translate(442.84 128.81) scale(0.99 1)">237</text>
        <text class="cls-9" transform="translate(128.53 171.72) scale(0.99 1)">1</text>
        <text class="cls-9" transform="translate(142.39 144.98) scale(0.99 1)">2</text>
        <text class="cls-9" transform="translate(170.91 129.24) scale(0.99 1)">3</text>
        <text class="cls-9" transform="translate(192.21 127.66) scale(0.99 1)">1</text>
        <text class="cls-9" transform="translate(207.67 127.66) scale(0.99 1)">2</text>
        <text class="cls-9" transform="translate(221.91 127.66) scale(0.99 1)">3</text>
        <text class="cls-9" transform="translate(236.79 127.66) scale(0.99 1)">4</text>
        <text class="cls-9" transform="translate(251.62 127.66) scale(0.99 1)">5</text>
        <text class="cls-9" transform="translate(266.45 127.66) scale(0.99 1)">6</text>
        <text class="cls-9" transform="translate(281.46 127.66) scale(0.99 1)">7</text>
        <text class="cls-9" transform="translate(296.16 127.66) scale(0.99 1)">8</text>
        <text class="cls-9" transform="translate(310.95 127.66) scale(0.99 1)">9</text>
        <text class="cls-9" transform="translate(324.39 127.66) scale(0.99 1)">10</text>
        <text class="cls-9" transform="translate(339.27 127.66) scale(0.99 1)">11</text>
        <text class="cls-9" transform="translate(353.98 127.66) scale(0.99 1)">12</text>
        <text class="cls-9" transform="translate(368.55 127.66) scale(0.99 1)">13</text>
        <text class="cls-9" transform="translate(383.9 127.66) scale(0.99 1)">14</text>
        <text class="cls-9" transform="translate(398.9 127.66) scale(0.99 1)">15</text>
        <text class="cls-9" transform="translate(421.39 129.62) scale(0.99 1)">4</text>
        <text class="cls-9" transform="translate(449.48 144.98) scale(0.99 1)">5</text>
        <text class="cls-8" transform="translate(134.75 175.4) scale(0.99 1)">Y01</text>
        <text class="cls-8" transform="translate(169.85 160.64) scale(0.99 1)">Y02</text>
        <text class="cls-8" transform="translate(169.85 160.64) scale(0.99 1)">Y02</text>
        <text class="cls-8" transform="translate(153.83 175.4) scale(0.99 1)">Y01</text>
        <text class="cls-8" transform="translate(150.02 150.56) scale(0.99 1)">X02</text>
        <text class="cls-8" transform="translate(168.54 141.62) scale(0.99 1)">X03</text>
        <text class="cls-10" transform="translate(193.6 140.47) scale(0.99 1)">A</text>
        <text class="cls-8" transform="translate(208.97 140.47) scale(0.99 1)">B</text>
        <text class="cls-8" transform="translate(194.1 159.47) scale(0.99 1)">L</text>
        <text class="cls-8" transform="translate(206.94 159.47) scale(0.99 1)">M</text>
        <text class="cls-8" transform="translate(232.64 159.47) scale(0.99 1)">N</text>
        <text class="cls-10" transform="translate(261.1 159.47) scale(0.99 1)">O</text>
        <text class="cls-10" transform="translate(283.31 159.47) scale(0.99 1)">P</text>
        <text class="cls-10" transform="translate(310.7 159.47) scale(0.99 1)">R</text>
        <text class="cls-8" transform="translate(338.39 159.47) scale(0.99 1)">S</text>
        <text class="cls-8" transform="translate(361.58 159.47) scale(0.99 1)">T</text>
        <text class="cls-8" transform="translate(379.91 159.47) scale(0.99 1)">V</text>
        <text class="cls-10" transform="translate(398.51 159.47) scale(0.99 1)">Z</text>
        <text class="cls-8" transform="translate(381.9 140.47) scale(0.99 1)">H</text>
        <text class="cls-8" transform="translate(398.76 140.47) scale(0.99 1)">I</text>
        <text class="cls-8" transform="translate(430.98 175.4) scale(0.99 1)">K02</text>
        <text class="cls-8" transform="translate(450.04 175.4) scale(0.99 1)">J03</text>
        <text class="cls-8" transform="translate(415.39 159.47) scale(0.99 1)">K01</text>
      </g>
      <g>
        <text class="cls-10" transform="translate(230.44 142.82) scale(0.99 1)">C</text>
        <text class="cls-8" transform="translate(253.6 142.82) scale(0.99 1)">D</text>
        <text class="cls-10" transform="translate(340.56 142.82) scale(0.99 1)">F</text>
        <text class="cls-8" transform="translate(362.24 142.82) scale(0.99 1)">G</text>
        <g>
          <text class="cls-11" transform="translate(428.54 146.17) scale(0.99 1)">P</text>
          <text class="cls-11" transform="translate(430.47 146.17) scale(0.99 1)">A</text>
          <text class="cls-12" transform="translate(432.96 146.17) scale(0.99 1)">L</text>
          <text class="cls-11" transform="translate(434.7 146.17) scale(0.99 1)">CHI</text>
        </g>
        <g>
          <text class="cls-13" transform="translate(229.23 136.56) scale(0.99 1)">T</text>
          <text class="cls-13" transform="translate(231.8 136.56) scale(0.99 1)">O</text>
        </g>
        <g>
          <text class="cls-13" transform="translate(252.73 136.56) scale(0.99 1)">T</text>
          <text class="cls-13" transform="translate(255.3 136.56) scale(0.99 1)">O</text>
        </g>
        <g>
          <text class="cls-13" transform="translate(276.35 136.56) scale(0.99 1)">T</text>
          <text class="cls-13" transform="translate(278.68 136.56) scale(0.99 1)">A</text>
        </g>
        <g>
          <text class="cls-13" transform="translate(300.02 136.56) scale(0.99 1)">T</text>
          <text class="cls-13" transform="translate(302.35 136.56) scale(0.99 1)">A</text>
        </g>
        <g>
          <text class="cls-13" transform="translate(319.74 136.56) scale(0.99 1)">T</text>
          <text class="cls-13" transform="translate(322.07 136.56) scale(0.99 1)">A</text>
        </g>
        <g>
          <text class="cls-13" transform="translate(338.93 136.56) scale(0.99 1)">T</text>
          <text class="cls-13" transform="translate(341.49 136.56) scale(0.99 1)">O</text>
        </g>
        <g>
          <text class="cls-13" transform="translate(361.32 136.56) scale(0.99 1)">T</text>
          <text class="cls-13" transform="translate(363.89 136.56) scale(0.99 1)">O</text>
        </g>
        <g>
          <text class="cls-12" transform="translate(282.27 98.54) scale(0.99 1)">TRIBUNA</text>
          <text class="cls-12" transform="translate(282.91 103.49) scale(0.99 1)">S</text>
          <text class="cls-12" transform="translate(284.92 103.49) scale(0.99 1)">T</text>
          <text class="cls-11" transform="translate(286.67 103.49) scale(0.99 1)">AM</text>
          <text class="cls-11" transform="translate(292.43 103.49) scale(0.99 1)">P</text>
          <text class="cls-11" transform="translate(294.36 103.49) scale(0.99 1)">A</text>
        </g>
      </g>
      <g>
        <text class="cls-8" transform="translate(143.22 103.09) scale(0.99 1)">220</text>
        <text class="cls-8" transform="translate(118.75 123.18) scale(0.99 1)">220</text>
        <text class="cls-8" transform="translate(97.89 151.84) scale(0.99 1)">218</text>
        <text class="cls-8" transform="translate(94.02 174.18) scale(0.99 1)">216</text>
        <text class="cls-8" transform="translate(93.01 198.25) scale(0.99 1)">214</text>
        <text class="cls-8" transform="translate(93.01 252.49) scale(0.99 1)">210</text>
        <text class="cls-8" transform="translate(93.01 321.28) scale(0.99 1)">206</text>
        <text class="cls-8" transform="translate(96.8 361.42) scale(0.99 1)">204</text>
        <text class="cls-8" transform="translate(112.71 395.97) scale(0.99 1)">202</text>
        <text class="cls-8" transform="translate(131.67 417.3) scale(0.99 1)">202</text>
        <text class="cls-8" transform="translate(90.72 291.15) scale(0.99 1)">208</text>
        <text class="cls-8" transform="translate(90.72 220.64) scale(0.99 1)">212</text>
        <text class="cls-8" transform="translate(141.14 129.62) scale(0.99 1)">219</text>
        <text class="cls-8" transform="translate(122.81 148.46) scale(0.99 1)">217</text>
        <text class="cls-8" transform="translate(114.15 174.18) scale(0.99 1)">215</text>
        <text class="cls-8" transform="translate(113.31 205.85) scale(0.99 1)">213</text>
        <text class="cls-8" transform="translate(113.2 238.64) scale(0.99 1)">211</text>
        <text class="cls-8" transform="translate(113.2 270.51) scale(0.99 1)">209</text>
        <text class="cls-8" transform="translate(112.74 300.64) scale(0.99 1)">207</text>
        <text class="cls-8" transform="translate(112.74 330.84) scale(0.99 1)">205</text>
        <text class="cls-8" transform="translate(117.09 364.33) scale(0.99 1)">203</text>
        <text class="cls-8" transform="translate(131.44 388.18) scale(0.99 1)">201</text>
        <text class="cls-8" transform="translate(131.07 200.25) scale(0.99 1)">112</text>
        <text class="cls-8" transform="translate(153.29 200.25) scale(0.99 1)">111</text>
        <text class="cls-8" transform="translate(131.07 226.16) scale(0.99 1)">110</text>
        <text class="cls-8" transform="translate(131.07 247.71) scale(0.99 1)">108</text>
        <text class="cls-8" transform="translate(131.07 270.51) scale(0.99 1)">106</text>
        <text class="cls-8" transform="translate(131.07 294.59) scale(0.99 1)">104</text>
        <text class="cls-8" transform="translate(131.07 319.2) scale(0.99 1)">102</text>
        <text class="cls-8" transform="translate(153.29 226.16) scale(0.99 1)">109</text>
        <text class="cls-8" transform="translate(153.29 247.71) scale(0.99 1)">107</text>
        <text class="cls-8" transform="translate(153.29 270.51) scale(0.99 1)">105</text>
        <text class="cls-8" transform="translate(153.29 294.59) scale(0.99 1)">103</text>
        <text class="cls-8" transform="translate(153.29 316.44) scale(0.99 1)">101</text>
        <text class="cls-8" transform="translate(76.53 381.18) scale(0.99 1)">301</text>
        <text class="cls-8" transform="translate(71.06 351.38) scale(0.99 1)">303</text>
        <text class="cls-8" transform="translate(69.53 313.81) scale(0.99 1)">305</text>
        <text class="cls-8" transform="translate(69.53 277.39) scale(0.99 1)">307</text>
        <text class="cls-8" transform="translate(69.53 242.31) scale(0.99 1)">309</text>
        <text class="cls-8" transform="translate(69.53 205.85) scale(0.99 1)">311</text>
        <text class="cls-8" transform="translate(72.1 166.65) scale(0.99 1)">313</text>
        <text class="cls-8" transform="translate(78.23 142.52) scale(0.99 1)">315</text>
        <text class="cls-8" transform="translate(58.32 143.93) scale(0.99 1)">318</text>
        <text class="cls-8" transform="translate(53.03 164.11) scale(0.99 1)">316</text>
        <text class="cls-8" transform="translate(50.98 194.61) scale(0.99 1)">314</text>
        <text class="cls-8" transform="translate(50.98 225.22) scale(0.99 1)">312</text>
        <text class="cls-8" transform="translate(51.03 258.22) scale(0.99 1)">310</text>
        <text class="cls-8" transform="translate(50.98 295.83) scale(0.99 1)">308</text>
        <text class="cls-8" transform="translate(50.98 326.99) scale(0.99 1)">306</text>
        <text class="cls-8" transform="translate(50.98 354.73) scale(0.99 1)">304</text>
        <text class="cls-8" transform="translate(56.55 380.41) scale(0.99 1)">302</text>
      </g>
      <g>
        <text class="cls-8" transform="translate(431.18 200.25) scale(0.99 1)">137</text>
        <text class="cls-8" transform="translate(431.18 226.16) scale(0.99 1)">139</text>
        <text class="cls-8" transform="translate(431.18 247.71) scale(0.99 1)">141</text>
        <text class="cls-8" transform="translate(431.18 270.51) scale(0.99 1)">143</text>
        <text class="cls-8" transform="translate(431.18 294.59) scale(0.99 1)">145</text>
        <text class="cls-8" transform="translate(431.18 316.44) scale(0.99 1)">147</text>
        <text class="cls-8" transform="translate(453.02 200.25) scale(0.99 1)">138</text>
        <text class="cls-8" transform="translate(453.02 226.16) scale(0.99 1)">140</text>
        <text class="cls-8" transform="translate(453.02 247.71) scale(0.99 1)">142</text>
        <text class="cls-8" transform="translate(453.02 270.51) scale(0.99 1)">144</text>
        <text class="cls-8" transform="translate(453.02 294.59) scale(0.99 1)">146</text>
        <text class="cls-8" transform="translate(453.02 319.2) scale(0.99 1)">148</text>
        <text class="cls-8" transform="translate(461.6 149.62) scale(0.99 1)">239</text>
        <text class="cls-8" transform="translate(490.13 168.7) scale(0.99 1)">242</text>
        <text class="cls-8" transform="translate(491.4 209.39) scale(0.99 1)">244</text>
        <text class="cls-8" transform="translate(491.4 278.57) scale(0.99 1)">248</text>
        <text class="cls-8" transform="translate(493.3 311.11) scale(0.99 1)">250</text>
        <text class="cls-8" transform="translate(491.4 350.83) scale(0.99 1)">252</text>
        <text class="cls-8" transform="translate(479.33 385.06) scale(0.99 1)">254</text>
        <text class="cls-8" transform="translate(494.33 244.34) scale(0.99 1)">246</text>
        <text class="cls-8" transform="translate(476.55 135.17) scale(0.99 1)">240</text>
        <text class="cls-8" transform="translate(469.56 170.22) scale(0.99 1)">241</text>
        <text class="cls-8" transform="translate(471.21 200.25) scale(0.99 1)">243</text>
        <text class="cls-8" transform="translate(471.21 231.89) scale(0.99 1)">245</text>
        <text class="cls-8" transform="translate(471.42 264.22) scale(0.99 1)">247</text>
        <text class="cls-8" transform="translate(471.21 294.59) scale(0.99 1)">249</text>
        <text class="cls-8" transform="translate(471.21 330.91) scale(0.99 1)">251</text>
        <text class="cls-8" transform="translate(464.62 371.49) scale(0.99 1)">253</text>
        <text class="cls-8" transform="translate(506.05 142.82) scale(0.99 1)">343</text>
        <text class="cls-8" transform="translate(514.17 167.79) scale(0.99 1)">345</text>
        <text class="cls-8" transform="translate(514.89 204.02) scale(0.99 1)">347</text>
        <text class="cls-8" transform="translate(514.89 240.91) scale(0.99 1)">349</text>
        <text class="cls-8" transform="translate(514.89 277.39) scale(0.99 1)">351</text>
        <text class="cls-8" transform="translate(514.89 311.96) scale(0.99 1)">353</text>
        <text class="cls-8" transform="translate(514.89 351.38) scale(0.99 1)">355</text>
        <text class="cls-8" transform="translate(507.94 380.41) scale(0.99 1)">357</text>
        <text class="cls-8" transform="translate(527.37 380.41) scale(0.99 1)">360</text>
        <text class="cls-8" transform="translate(532.98 354.73) scale(0.99 1)">358</text>
        <text class="cls-8" transform="translate(532.98 326.99) scale(0.99 1)">356</text>
        <text class="cls-8" transform="translate(532.98 295.83) scale(0.99 1)">354</text>
        <text class="cls-8" transform="translate(532.98 258.22) scale(0.99 1)">352</text>
        <text class="cls-8" transform="translate(532.98 225) scale(0.99 1)">350</text>
        <text class="cls-8" transform="translate(532.98 193.13) scale(0.99 1)">348</text>
        <text class="cls-8" transform="translate(530.97 164.11) scale(0.99 1)">346</text>
        <text class="cls-8" transform="translate(525.35 142.52) scale(0.99 1)">344</text>
      </g>
      <g>
        <text class="cls-8" transform="translate(134.35 341.55) scale(0.99 1)">172</text>
        <text class="cls-8" transform="translate(165.79 385.06) scale(0.99 1)">168</text>
        <text class="cls-8" transform="translate(155.68 405.36) scale(0.99 1)">273</text>
        <text class="cls-8" transform="translate(152.82 425.84) scale(0.99 1)">276</text>
        <text class="cls-8" transform="translate(177.56 429.71) scale(0.99 1)">274</text>
        <text class="cls-8" transform="translate(200.73 429.71) scale(0.99 1)">272</text>
        <text class="cls-8" transform="translate(229.64 429.71) scale(0.99 1)">270</text>
        <text class="cls-8" transform="translate(266.33 429.71) scale(0.99 1)">268</text>
        <text class="cls-8" transform="translate(302.73 429.71) scale(0.99 1)">266</text>
        <text class="cls-8" transform="translate(336.54 429.71) scale(0.99 1)">264</text>
        <text class="cls-8" transform="translate(369.79 429.71) scale(0.99 1)">262</text>
        <text class="cls-8" transform="translate(410.3 429.71) scale(0.99 1)">260</text>
        <text class="cls-8" transform="translate(444.5 418.88) scale(0.99 1)">258</text>
        <text class="cls-8" transform="translate(466 406.47) scale(0.99 1)">256</text>
        <text class="cls-8" transform="translate(183.95 409.14) scale(0.99 1)">271</text>
        <text class="cls-8" transform="translate(218.08 409.14) scale(0.99 1)">269</text>
        <text class="cls-8" transform="translate(249.41 409.14) scale(0.99 1)">267</text>
        <text class="cls-8" transform="translate(283.93 409.14) scale(0.99 1)">265</text>
        <text class="cls-8" transform="translate(317.34 409.14) scale(0.99 1)">263</text>
        <text class="cls-8" transform="translate(351.52 409.14) scale(0.99 1)">261</text>
        <text class="cls-8" transform="translate(382.98 409.14) scale(0.99 1)">259</text>
        <text class="cls-8" transform="translate(410.3 408.45) scale(0.99 1)">257</text>
        <text class="cls-8" transform="translate(438.09 399.84) scale(0.99 1)">255</text>
        <text class="cls-8" transform="translate(200.73 386.71) scale(0.99 1)">166</text>
        <text class="cls-8" transform="translate(384.58 386.71) scale(0.99 1)">156</text>
        <text class="cls-8" transform="translate(143.84 371.49) scale(0.99 1)">170</text>
        <text class="cls-8" transform="translate(153.29 346.37) scale(0.99 1)">169</text>
        <text class="cls-8" transform="translate(171.41 367.67) scale(0.99 1)">167</text>
        <text class="cls-8" transform="translate(200.73 367.67) scale(0.99 1)">165</text>
        <text class="cls-8" transform="translate(200.73 350.29) scale(0.99 1)">165</text>
        <text class="cls-8" transform="translate(229.56 367.67) scale(0.99 1)">163</text>
        <text class="cls-8" transform="translate(229.64 350.29) scale(0.99 1)">163</text>
        <text class="cls-8" transform="translate(274.73 367.67) scale(0.99 1)">161</text>
        <text class="cls-8" transform="translate(309.81 367.67) scale(0.99 1)">159</text>
        <text class="cls-8" transform="translate(268.88 350.29) scale(0.99 1)">161</text>
        <text class="cls-8" transform="translate(315.54 350.29) scale(0.99 1)">159</text>
        <text class="cls-8" transform="translate(356.29 367.67) scale(0.99 1)">157</text>
        <text class="cls-8" transform="translate(384.75 367.67) scale(0.99 1)">155</text>
        <text class="cls-8" transform="translate(356.29 350.29) scale(0.99 1)">157</text>
        <text class="cls-8" transform="translate(384.75 350.29) scale(0.99 1)">155</text>
        <text class="cls-8" transform="translate(411.62 367.67) scale(0.99 1)">151</text>
        <text class="cls-8" transform="translate(431.21 344.63) scale(0.99 1)">149</text>
        <text class="cls-8" transform="translate(450.36 340.67) scale(0.99 1)">150</text>
        <text class="cls-8" transform="translate(440.73 371.49) scale(0.99 1)">152</text>
        <text class="cls-8" transform="translate(419.26 385.76) scale(0.99 1)">154</text>
      </g>
      <g>
        <g>
          <text class="cls-8" transform="translate(235.8 386.71) scale(0.99 1)">T</text>
          <text class="cls-10" transform="translate(239.01 386.71) scale(0.99 1)">O164</text>
        </g>
        <g>
          <text class="cls-8" transform="translate(270.84 386.71) scale(0.99 1)">T</text>
          <text class="cls-10" transform="translate(274.05 386.71) scale(0.99 1)">O162</text>
        </g>
        <g>
          <text class="cls-8" transform="translate(307.37 386.71) scale(0.99 1)">T</text>
          <text class="cls-10" transform="translate(310.58 386.71) scale(0.99 1)">O160</text>
        </g>
        <g>
          <text class="cls-8" transform="translate(342.49 386.71) scale(0.99 1)">T</text>
          <text class="cls-10" transform="translate(345.7 386.71) scale(0.99 1)">O158</text>
        </g>
      </g>
      <g>
        <text class="cls-12" transform="translate(204.4 176.21) scale(0.99 1)">1</text>
        <text class="cls-12" transform="translate(218.38 176.21) scale(0.99 1)">2</text>
        <text class="cls-12" transform="translate(232.37 176.21) scale(0.99 1)">3</text>
        <text class="cls-12" transform="translate(246.36 176.21) scale(0.99 1)">4</text>
        <text class="cls-12" transform="translate(260.34 176.21) scale(0.99 1)">5</text>
        <text class="cls-12" transform="translate(337.38 176.21) scale(0.99 1)">6</text>
        <text class="cls-12" transform="translate(351.37 176.21) scale(0.99 1)">7</text>
        <text class="cls-12" transform="translate(365.35 176.21) scale(0.99 1)">8</text>
        <text class="cls-12" transform="translate(379.34 176.21) scale(0.99 1)">9</text>
        <text class="cls-12" transform="translate(392.29 176.21) scale(0.99 1)">10</text>
      </g>
    </g>
  </g>
</svg>
